#N canvas 267 498 858 380 10;
#X obj 23 55 tgl 15 0 empty empty empty 17 7 0 10 #fcfcfc #000000 #000000 0 1;
#X obj 120 56 tgl 15 0 empty empty empty 17 7 0 10 #fcfcfc #000000 #000000 0 1;
#X obj 68 12 tgl 16 0 empty empty empty 0 -8 0 10 #fcfcfc #000000 #000000 0 1;
#N canvas 633 267 697 518 drum 1;
#X obj 43 145 bng 15 250 50 0 empty empty empty 17 7 0 10 #fcfcfc #000000 #000000;
#X obj 40 47 tgl 15 0 empty empty empty 17 7 0 10 #fcfcfc #000000 #000000 0 1;
#X obj 42 68 metro 1333.34;
#X obj 81 22 inlet;
#X obj 42 199 outlet~;
#N canvas 0 23 746 614 (subpatch) 0;
#X obj 441 101 inlet;
#X obj 266 311 *~;
#N canvas 381 209 450 300 vol_env 0;
#X obj 37 37 inlet;
#X obj 29 204 *~;
#X obj 29 225 outlet~;
#X obj 38 155 vline~;
#X msg 37 58 1 0.5 \, 0 \$1 0.5;
#X connect 0 0 4 0;
#X connect 1 0 2 0;
#X connect 3 0 1 0;
#X connect 3 0 1 1;
#X connect 4 0 3 0;
#X restore 202 229 pd vol_env;
#X obj 318 154 f 250;
#X obj 280 285 hip~ 100;
#X obj 434 278 vline~;
#X obj 357 197 noise~;
#X obj 403 316 *~;
#X obj 523 146 phasor~;
#X obj 523 170 expr~ $v1>0.5;
#X obj 523 194 expr~ ($v1*2)-1;
#X obj 552 327 vline~;
#X obj 329 355 *~ 0.2;
#X obj 472 374 *~ 0.2;
#X obj 531 350 *~;
#X obj 363 495 outlet~;
#X obj 404 363 *~ 0.2;
#X obj 368 424 +~;
#X msg 553 299 0.05 3 \, 0 500 200;
#X msg 436 253 0.95 2 \, 0 1000 2;
#X obj 357 240 bp~ 1000 1;
#X connect 0 0 3 0;
#X connect 0 0 19 0;
#X connect 0 0 18 0;
#X connect 1 0 12 0;
#X connect 2 0 1 0;
#X connect 3 0 2 0;
#X connect 4 0 1 1;
#X connect 5 0 7 1;
#X connect 6 0 4 0;
#X connect 6 0 20 0;
#X connect 7 0 16 0;
#X connect 8 0 9 0;
#X connect 9 0 10 0;
#X connect 10 0 14 0;
#X connect 11 0 14 1;
#X connect 12 0 17 0;
#X connect 13 0 17 0;
#X connect 14 0 13 0;
#X connect 16 0 17 0;
#X connect 17 0 15 0;
#X connect 18 0 11 0;
#X connect 19 0 5 0;
#X connect 20 0 7 0;
#X restore 43 165 pd;
#X obj 199 2 inlet;
#X obj 293 8 inlet;
#X floatatom 284 40 5 0 0 0 - - - 0;
#X floatatom 164 40 5 0 0 0 - - - 0;
#X connect 0 0 5 0;
#X connect 1 0 2 0;
#X connect 2 0 0 0;
#X connect 3 0 1 0;
#X connect 5 0 4 0;
#X connect 6 0 9 0;
#X connect 7 0 8 0;
#X connect 8 0 2 0;
#X connect 9 0 2 0;
#X restore 280 118 pd drum;
#X obj 280 56 tgl 15 0 empty empty empty 17 7 0 10 #fcfcfc #000000 #000000 0 1;
#X text 87 12 Turn on/off melody + accompaniment + drums;
#X text 301 54 Turn on/off components seperatley;
#N canvas 442 218 697 518 melody_notes 1;
#X floatatom 26 116 5 0 0 0 - - - 0;
#X floatatom 27 154 5 0 0 0 - - - 0;
#X obj 22 -18 inlet;
#X obj 29 69 i 0;
#X obj 38 92 + 1;
#X obj 27 171 outlet;
#X obj 32 45 metro 500;
#X obj 60 69 % 12;
#X obj 119 22 loadbang;
#N canvas 128 128 450 250 (subpatch) 0;
#X array melody_notes 12 float 3;
#A 0 60 64 67 69 67 64 62 65 64 60 62 64;
#X coords 0 1 12 -1 200 140 1 0 0;
#X restore 179 105 graph;
#X obj 27 135 tabread melody_notes;
#X msg 119 50 \; melody_notes 0 60 64 67 69 67 64 62 65 64 60 62 64;
#X obj 143 -84 inlet;
#X obj 237 -78 inlet;
#X floatatom 228 -46 5 0 0 0 - - - 0;
#X floatatom 108 -46 5 0 0 0 - - - 0;
#X connect 0 0 10 0;
#X connect 1 0 5 0;
#X connect 2 0 6 0;
#X connect 3 0 4 0;
#X connect 3 0 0 0;
#X connect 4 0 7 0;
#X connect 6 0 3 0;
#X connect 7 0 3 1;
#X connect 8 0 11 0;
#X connect 10 0 1 0;
#X connect 12 0 15 0;
#X connect 13 0 14 0;
#X connect 14 0 6 0;
#X connect 15 0 6 0;
#X restore 13 82 pd melody_notes;
#N canvas 512 215 697 518 accompaniment_notes 0;
#X obj 15 -534 inlet;
#X obj 121 -479 loadbang;
#X floatatom 21 -378 5 0 0 0 - - - 0;
#X floatatom 22 -340 5 0 0 0 - - - 0;
#X obj 20 -441 i 0;
#X obj 29 -418 + 1;
#X obj 22 -323 outlet;
#N canvas 128 128 450 250 (subpatch) 0;
#X array Accomp_notes 12 float 3;
#A 0 48 52 55 57 48 52 53 57 48 55 59 50;
#X coords 0 1 12 -1 200 140 1;
#X restore 244 -381 graph;
#X obj 22 -359 tabread Accomp_notes;
#X msg 121 -451 \; Accomp_notes 0 48 52 55 57 48 52 53 57 48 55 59 50;
#X obj 51 -441 % 12;
#X obj 154 -571 inlet;
#X obj 248 -565 inlet;
#X floatatom 239 -533 5 0 0 0 - - - 0;
#X floatatom 119 -533 5 0 0 0 - - - 0;
#X obj 23 -465 metro 666.667;
#X connect 0 0 15 0;
#X connect 1 0 9 0;
#X connect 2 0 8 0;
#X connect 3 0 6 0;
#X connect 4 0 5 0;
#X connect 4 0 2 0;
#X connect 5 0 10 0;
#X connect 8 0 3 0;
#X connect 10 0 4 1;
#X connect 11 0 14 0;
#X connect 12 0 13 0;
#X connect 13 0 15 0;
#X connect 14 0 15 0;
#X connect 15 0 4 0;
#X restore 120 85 pd accompaniment_notes;
#N canvas 192 192 450 300 AM_synth 0;
#X obj 44 97 mtof;
#X obj 43 146 osc~;
#X obj 44 244 *~;
#X obj 46 15 inlet;
#X obj 41 264 outlet~;
#N canvas 32 32 450 300 attack/decay/release 0;
#X obj 58 14 inlet;
#X obj 53 198 outlet~;
#X obj 62 70 bng 15 250 50 0 empty empty empty 17 7 0 10 #fcfcfc #000000 #000000;
#X obj 58 140 line~;
#X obj 58 163 *~;
#X obj 108 83 delay 250;
#X msg 65 92 1 15;
#X msg 109 120 0 250;
#X connect 0 0 2 0;
#X connect 2 0 6 0;
#X connect 2 0 5 0;
#X connect 3 0 4 0;
#X connect 3 0 4 1;
#X connect 4 0 1 0;
#X connect 5 0 7 0;
#X connect 6 0 3 0;
#X connect 7 0 3 0;
#X restore 201 145 pd attack/decay/release;
#N canvas 1040 392 450 300 AM 0;
#X obj 48 267 outlet~;
#X obj 100 234 tgl 16 0 empty empty empty 0 -8 0 10 #fcfcfc #000000 #000000 0 1;
#X obj 54 3 inlet;
#N canvas 952 0 958 956 ot1 0;
#X obj 41 63 inlet;
#X obj 41 84 *;
#X floatatom 41 105 5 0 0 0 - - - 0;
#X obj 41 125 osc~;
#X obj 41 146 *~;
#X obj 41 167 outlet~;
#X floatatom 110 60 5 0 0 0 - - - 0;
#X obj 110 83 expr 1/($f1*$f1);
#X floatatom 110 104 5 0 0 0 - - - 0;
#X obj 106 37 nbx 5 14 -1e+37 1e+37 0 1 empty empty empty 0 -8 0 10 #fcfcfc #000000 #000000 24 256;
#X connect 0 0 1 0;
#X connect 1 0 2 0;
#X connect 2 0 3 0;
#X connect 3 0 4 0;
#X connect 4 0 5 0;
#X connect 6 0 7 0;
#X connect 6 0 1 1;
#X connect 7 0 8 0;
#X connect 8 0 4 1;
#X connect 9 0 6 0;
#X restore 51 63 pd ot1;
#N canvas 906 317 958 956 ot2 0;
#X obj 41 63 inlet;
#X obj 41 84 *;
#X floatatom 41 105 5 0 0 0 - - - 0;
#X obj 41 125 osc~;
#X obj 41 146 *~;
#X obj 41 167 outlet~;
#X obj 110 83 expr 1/($f1*$f1);
#X floatatom 110 104 5 0 0 0 - - - 0;
#X text 36 20 frequency modulator;
#X obj 111 61 nbx 5 14 -1e+37 1e+37 0 1 empty empty empty 0 -8 0 10 #fcfcfc #000000 #000000 2 256;
#X connect 0 0 1 0;
#X connect 1 0 2 0;
#X connect 2 0 3 0;
#X connect 3 0 4 0;
#X connect 4 0 5 0;
#X connect 6 0 7 0;
#X connect 7 0 4 1;
#X connect 9 0 1 1;
#X connect 9 0 6 0;
#X restore 98 62 pd ot2;
#N canvas 952 0 958 956 ot3 0;
#X obj 41 63 inlet;
#X obj 41 84 *;
#X floatatom 41 105 5 0 0 0 - - - 0;
#X obj 41 125 osc~;
#X obj 41 146 *~;
#X obj 41 167 outlet~;
#X obj 110 83 expr 1/($f1*$f1);
#X floatatom 110 104 5 0 0 0 - - - 0;
#X obj 110 60 nbx 5 14 -1e+37 1e+37 0 1 empty empty empty 0 -8 0 10 #fcfcfc #000000 #000000 203 256;
#X connect 0 0 1 0;
#X connect 1 0 2 0;
#X connect 2 0 3 0;
#X connect 3 0 4 0;
#X connect 4 0 5 0;
#X connect 6 0 7 0;
#X connect 7 0 4 1;
#X connect 8 0 6 0;
#X connect 8 0 1 1;
#X restore 150 62 pd ot3;
#X text 97 2 input the main frequency;
#X text 209 61 overtones to modulate the frequency;
#X text 133 234 Turn on/off frequency modulation;
#X floatatom 54 24 5 0 0 0 - - - 0;
#X obj 100 210 loadbang;
#X obj 50 235 *~ 0.1;
#X connect 1 0 11 1;
#X connect 2 0 9 0;
#X connect 3 0 11 0;
#X connect 4 0 11 0;
#X connect 5 0 11 0;
#X connect 9 0 3 0;
#X connect 9 0 4 0;
#X connect 9 0 5 0;
#X connect 10 0 1 0;
#X connect 11 0 0 0;
#X restore 93 145 pd AM overtones;
#X connect 0 0 1 0;
#X connect 0 0 5 0;
#X connect 0 0 6 0;
#X connect 1 0 2 0;
#X connect 2 0 4 0;
#X connect 3 0 0 0;
#X connect 5 0 2 1;
#X connect 6 0 2 0;
#X restore 120 113 pd AM_synth;
#N canvas 709 447 450 300 FM_Synth 0;
#X obj 44 97 mtof;
#X obj 43 146 osc~;
#X obj 46 15 inlet;
#X obj 41 264 outlet~;
#X obj 44 244 *~;
#N canvas 32 32 450 300 attack/decay/release 0;
#X obj 58 14 inlet;
#X obj 53 198 outlet~;
#X obj 62 70 bng 15 250 50 0 empty empty empty 17 7 0 10 #fcfcfc #000000 #000000;
#X obj 58 140 line~;
#X obj 58 163 *~;
#X obj 108 83 delay 250;
#X msg 65 92 1 15;
#X msg 109 120 0 250;
#X connect 0 0 2 0;
#X connect 2 0 6 0;
#X connect 2 0 5 0;
#X connect 3 0 4 0;
#X connect 3 0 4 1;
#X connect 4 0 1 0;
#X connect 5 0 7 0;
#X connect 6 0 3 0;
#X connect 7 0 3 0;
#X restore 196 144 pd attack/decay/release;
#N canvas 1040 392 450 300 FM 0;
#X obj 48 267 outlet~;
#X obj 100 234 tgl 16 0 empty empty empty 0 -8 0 10 #fcfcfc #000000 #000000 0 1;
#X obj 54 3 inlet;
#N canvas 952 0 958 956 ot1 0;
#X obj 41 63 inlet;
#X obj 41 84 *;
#X floatatom 41 105 5 0 0 0 - - - 0;
#X obj 41 125 osc~;
#X obj 41 146 *~;
#X obj 41 167 outlet~;
#X floatatom 110 60 5 0 0 0 - - - 0;
#X obj 110 83 expr 1/($f1*$f1);
#X floatatom 110 104 5 0 0 0 - - - 0;
#X obj 106 37 nbx 5 14 -1e+37 1e+37 0 1 empty empty empty 0 -8 0 10 #fcfcfc #000000 #000000 24 256;
#X connect 0 0 1 0;
#X connect 1 0 2 0;
#X connect 2 0 3 0;
#X connect 3 0 4 0;
#X connect 4 0 5 0;
#X connect 6 0 7 0;
#X connect 6 0 1 1;
#X connect 7 0 8 0;
#X connect 8 0 4 1;
#X connect 9 0 6 0;
#X restore 51 63 pd ot1;
#N canvas 906 317 958 956 ot2 0;
#X obj 41 63 inlet;
#X obj 41 84 *;
#X floatatom 41 105 5 0 0 0 - - - 0;
#X obj 41 125 osc~;
#X obj 41 146 *~;
#X obj 41 167 outlet~;
#X obj 110 83 expr 1/($f1*$f1);
#X floatatom 110 104 5 0 0 0 - - - 0;
#X text 36 20 frequency modulator;
#X obj 111 61 nbx 5 14 -1e+37 1e+37 0 1 empty empty empty 0 -8 0 10 #fcfcfc #000000 #000000 2 256;
#X connect 0 0 1 0;
#X connect 1 0 2 0;
#X connect 2 0 3 0;
#X connect 3 0 4 0;
#X connect 4 0 5 0;
#X connect 6 0 7 0;
#X connect 7 0 4 1;
#X connect 9 0 1 1;
#X connect 9 0 6 0;
#X restore 98 62 pd ot2;
#N canvas 952 0 958 956 ot3 0;
#X obj 41 63 inlet;
#X obj 41 84 *;
#X floatatom 41 105 5 0 0 0 - - - 0;
#X obj 41 125 osc~;
#X obj 41 146 *~;
#X obj 41 167 outlet~;
#X obj 110 83 expr 1/($f1*$f1);
#X floatatom 110 104 5 0 0 0 - - - 0;
#X obj 110 60 nbx 5 14 -1e+37 1e+37 0 1 empty empty empty 0 -8 0 10 #fcfcfc #000000 #000000 203 256;
#X connect 0 0 1 0;
#X connect 1 0 2 0;
#X connect 2 0 3 0;
#X connect 3 0 4 0;
#X connect 4 0 5 0;
#X connect 6 0 7 0;
#X connect 7 0 4 1;
#X connect 8 0 6 0;
#X connect 8 0 1 1;
#X restore 150 62 pd ot3;
#X text 97 2 input the main frequency;
#X text 209 61 overtones to modulate the frequency;
#X text 133 234 Turn on/off frequency modulation;
#X floatatom 54 24 5 0 0 0 - - - 0;
#X obj 100 210 loadbang;
#X obj 50 235 *~ 0.1;
#X connect 1 0 11 1;
#X connect 2 0 9 0;
#X connect 3 0 11 0;
#X connect 4 0 11 0;
#X connect 5 0 11 0;
#X connect 9 0 3 0;
#X connect 9 0 4 0;
#X connect 9 0 5 0;
#X connect 10 0 1 0;
#X connect 11 0 0 0;
#X restore 93 145 pd FM overtones;
#X obj 45 208 +~;
#X connect 0 0 1 0;
#X connect 0 0 6 0;
#X connect 0 0 5 0;
#X connect 1 0 7 0;
#X connect 2 0 0 0;
#X connect 4 0 3 0;
#X connect 5 0 4 1;
#X connect 6 0 7 1;
#X connect 7 0 4 0;
#X restore 23 114 pd FM_Synth;
#X obj 305 299 writesf~ 2;
#X msg 369 248 open musicMenu.wav;
#X msg 329 219 start;
#X msg 387 213 stop;
#X obj 96 318 dac~ 1 2;
#X obj 20 175 *~ 0.1;
#X obj 282 152 *~ 0.1;
#X msg 423 100 1;
#X msg 422 161 0;
#X connect 0 0 7 0;
#X connect 1 0 8 0;
#X connect 2 0 0 0;
#X connect 2 0 1 0;
#X connect 2 0 4 0;
#X connect 3 0 17 0;
#X connect 4 0 3 0;
#X connect 7 0 10 0;
#X connect 8 0 9 0;
#X connect 9 0 16 0;
#X connect 10 0 16 0;
#X connect 12 0 11 0;
#X connect 13 0 11 0;
#X connect 13 0 18 0;
#X connect 14 0 11 0;
#X connect 14 0 19 0;
#X connect 16 0 11 0;
#X connect 16 0 15 0;
#X connect 17 0 11 1;
#X connect 17 0 15 1;
#X connect 18 0 8 1;
#X connect 18 0 7 1;
#X connect 18 0 3 1;
#X connect 19 0 8 2;
#X connect 19 0 7 2;
#X connect 19 0 3 2;
