#N canvas 916 0 1196 1030 12;
#X obj 363 265 bng 19 250 50 0 empty empty empty 0 -10 0 12 #fcfcfc #000000 #000000;
#X obj 255 716 dac~;
#X obj 325 420 noise~;
#X obj 423 580 vline~;
#X obj 330 504 bp~ 799 3;
#X obj 265 501 hip~;
#X floatatom 245 445 5 0 0 0 - - - 0;
#X obj 216 372 delay 100;
#X obj 136 503 vline~;
#X obj 273 580 *~;
#X obj 251 630 +~;
#X obj 501 730 writesf~ 2;
#X msg 399 277 start;
#X msg 453 272 stop;
#X msg 566 689 open boomHit.wav;
#X msg 425 520 0.25 10 \, 0 1000 100;
#X obj 360 590 *~;
#X obj 208 600 *~ 0.5;
#X msg 99 468 0.05 100 \, 0 100 350;
#X text 264 261 Play Here--->;
#X text 344 202 spaceship hit;
#X obj 221 407 loadbang;
#X msg 180 432 93;
#X connect 0 0 7 0;
#X connect 0 0 15 0;
#X connect 2 0 5 0;
#X connect 2 0 4 0;
#X connect 3 0 16 1;
#X connect 4 0 16 0;
#X connect 5 0 9 0;
#X connect 6 0 5 1;
#X connect 7 0 18 0;
#X connect 8 0 9 1;
#X connect 9 0 17 0;
#X connect 10 0 1 0;
#X connect 10 0 1 1;
#X connect 10 0 11 1;
#X connect 10 0 11 0;
#X connect 12 0 11 0;
#X connect 13 0 11 0;
#X connect 14 0 11 0;
#X connect 15 0 3 0;
#X connect 16 0 10 0;
#X connect 17 0 10 0;
#X connect 18 0 8 0;
#X connect 21 0 22 0;
#X connect 22 0 6 0;
