#N canvas 1191 0 1196 1451 12;
#X obj 396 307 vline~;
#X obj 365 232 noise~;
#X obj 365 345 *~;
#X obj 319 269 bp~ 600 1;
#X obj 444 189 phasor~;
#X obj 444 213 expr~ $v1>0.5;
#X obj 444 237 expr~ ($v1*2)-1;
#X obj 485 345 vline~;
#X obj 450 381 *~;
#X msg 485 314 0.05 2 \, 0 150 2;
#X floatatom 443 156 5 0 0 0 - - - 0;
#X obj 767 340 vline~;
#X obj 680 213 noise~;
#X obj 736 378 *~;
#X obj 759 194 expr~ $v1>0.5;
#X obj 759 218 expr~ ($v1*2)-1;
#X obj 856 378 vline~;
#X obj 821 414 *~;
#X obj 759 153 phasor~;
#X floatatom 758 120 5 0 0 0 - - - 0;
#X obj 650 200 bng 19 250 50 0 empty empty empty 0 -10 0 12 #fcfcfc #000000 #000000;
#X obj 647 159 r kick;
#X obj 646 343 clip~ -0.9 0.9;
#X obj 701 243 *~ 1;
#X obj 612 298 *~ 0.1;
#X obj 687 288 bp~ 125 4;
#X obj 599 269 hip~ 8000;
#X obj 686 317 *~ 15;
#X msg 838 348 0.04 0.25 \, 0 150 2;
#X obj 433 543 dac~;
#X obj 194 554 bng 19 250 50 0 empty empty empty 0 -10 0 12 #fcfcfc #000000 #000000;
#X msg 775 307 0.95 2 \, 0 450 5;
#X msg 398 282 0.95 1 \, 0 400 2;
#X obj 706 660 writesf~ 2;
#X msg 266 605 start;
#X msg 192 583 stop;
#X msg 172 628 open kill.wav;
#X connect 0 0 2 1;
#X connect 1 0 3 0;
#X connect 2 0 29 0;
#X connect 2 0 29 1;
#X connect 2 0 33 0;
#X connect 2 0 33 1;
#X connect 3 0 2 0;
#X connect 4 0 5 0;
#X connect 5 0 6 0;
#X connect 6 0 8 0;
#X connect 7 0 8 1;
#X connect 8 0 29 0;
#X connect 8 0 29 1;
#X connect 8 0 33 0;
#X connect 8 0 33 1;
#X connect 9 0 7 0;
#X connect 10 0 4 0;
#X connect 11 0 13 1;
#X connect 12 0 23 0;
#X connect 12 0 26 0;
#X connect 13 0 29 0;
#X connect 13 0 33 0;
#X connect 13 0 33 1;
#X connect 14 0 15 0;
#X connect 15 0 17 0;
#X connect 16 0 17 1;
#X connect 17 0 29 1;
#X connect 17 0 33 0;
#X connect 17 0 33 1;
#X connect 18 0 14 0;
#X connect 19 0 18 0;
#X connect 20 0 28 0;
#X connect 20 0 31 0;
#X connect 21 0 20 0;
#X connect 22 0 13 0;
#X connect 23 0 25 0;
#X connect 24 0 13 0;
#X connect 25 0 27 0;
#X connect 26 0 24 0;
#X connect 27 0 22 0;
#X connect 28 0 16 0;
#X connect 30 0 32 0;
#X connect 30 0 31 0;
#X connect 31 0 11 0;
#X connect 32 0 0 0;
#X connect 34 0 33 0;
#X connect 35 0 33 0;
#X connect 36 0 33 0;
