#N canvas 781 0 2400 1464 12;
#X obj 134 388 osc~;
#X floatatom 150 299 5 0 0 0 - - - 0;
#X obj 129 441 *~;
#X floatatom 225 369 5 0 0 0 - - - 0;
#X obj 44 405 +~;
#X obj 48 434 osc~;
#X obj 93 545 vline~;
#X obj 140 345 *~;
#X obj 190 386 *~;
#X obj 44 508 *~;
#X floatatom 244 418 5 0 0 0 - - - 0;
#X obj 244 441 osc~;
#X obj 244 465 expr~ ($v1+1)*0.5;
#X obj 72 467 *~;
#X obj 169 697 dac~;
#X obj 517 334 osc~;
#X floatatom 537 262 5 0 0 0 - - - 0;
#X obj 512 387 *~;
#X floatatom 608 315 5 0 0 0 - - - 0;
#X obj 427 351 +~;
#X obj 431 380 osc~;
#X obj 476 491 vline~;
#X obj 523 291 *~;
#X obj 573 332 *~;
#X obj 372 559 *~;
#X floatatom 627 364 5 0 0 0 - - - 0;
#X obj 627 387 osc~;
#X obj 627 411 expr~ ($v1+1)*0.5;
#X obj 455 413 *~;
#X obj 507 157 bng 19 250 50 0 empty empty empty 0 -10 0 12 #fcfcfc #000000 #000000;
#X obj 167 649 +~;
#X obj 853 351 osc~;
#X floatatom 873 279 5 0 0 0 - - - 0;
#X obj 848 404 *~;
#X floatatom 944 332 5 0 0 0 - - - 0;
#X obj 763 368 +~;
#X obj 767 397 osc~;
#X obj 876 529 vline~;
#X obj 859 308 *~;
#X obj 909 349 *~;
#X floatatom 963 381 5 0 0 0 - - - 0;
#X obj 963 404 osc~;
#X obj 963 428 expr~ ($v1+1)*0.5;
#X obj 769 479 *~;
#X obj 769 559 *~;
#X obj 375 597 +~;
#X text 97 210 60 64 67;
#X obj 401 307 mtof~;
#X floatatom 431 281 5 0 0 0 - - - 0;
#X floatatom 29 299 5 0 0 0 - - - 0;
#X floatatom 832 239 5 0 0 0 - - - 0;
#X obj 790 275 mtof~;
#X obj 23 341 mtof~;
#X msg 156 526 1 20 \, 0 250 500;
#X msg 538 472 1 5 \, 0 250 500;
#X msg 875 489 1 5 \, 0 250 500;
#X obj 235 293 delay 500;
#X obj 719 240 delay 1100;
#X obj 859 686 writesf~ 2;
#X msg 866 631 start;
#X msg 820 642 stop;
#X msg 984 611 open start_retry.wav;
#X obj 26 231 loadbang;
#X msg 32 259 64;
#X obj 150 242 loadbang;
#X msg 156 270 260;
#X obj 285 327 loadbang;
#X msg 291 355 0.5;
#X obj 439 228 loadbang;
#X obj 302 396 loadbang;
#X msg 308 424 331;
#X msg 448 249 60;
#X obj 571 215 loadbang;
#X msg 577 243 195;
#X obj 638 257 loadbang;
#X msg 644 285 0.3;
#X obj 675 318 loadbang;
#X msg 674 343 232;
#X obj 815 156 loadbang;
#X obj 909 231 loadbang;
#X obj 986 273 loadbang;
#X obj 1012 344 loadbang;
#X msg 821 184 67;
#X msg 915 259 485;
#X msg 992 301 0.2;
#X msg 1018 372 439;
#X connect 0 0 2 0;
#X connect 1 0 7 1;
#X connect 2 0 4 1;
#X connect 3 0 8 1;
#X connect 4 0 5 0;
#X connect 5 0 13 0;
#X connect 6 0 9 1;
#X connect 7 0 8 0;
#X connect 7 0 0 0;
#X connect 9 0 30 0;
#X connect 10 0 11 0;
#X connect 11 0 12 0;
#X connect 12 0 13 1;
#X connect 13 0 9 0;
#X connect 15 0 17 0;
#X connect 16 0 22 1;
#X connect 17 0 19 1;
#X connect 18 0 23 1;
#X connect 19 0 20 0;
#X connect 20 0 28 0;
#X connect 21 0 24 1;
#X connect 22 0 23 0;
#X connect 22 0 15 0;
#X connect 24 0 45 0;
#X connect 25 0 26 0;
#X connect 26 0 27 0;
#X connect 27 0 28 1;
#X connect 28 0 24 0;
#X connect 29 0 54 0;
#X connect 29 0 56 0;
#X connect 29 0 57 0;
#X connect 30 0 14 0;
#X connect 30 0 14 1;
#X connect 30 0 58 0;
#X connect 30 0 58 1;
#X connect 31 0 33 0;
#X connect 32 0 38 1;
#X connect 33 0 35 1;
#X connect 34 0 39 1;
#X connect 35 0 36 0;
#X connect 36 0 43 0;
#X connect 37 0 44 1;
#X connect 38 0 39 0;
#X connect 38 0 31 0;
#X connect 40 0 41 0;
#X connect 41 0 42 0;
#X connect 42 0 43 1;
#X connect 43 0 44 0;
#X connect 44 0 45 1;
#X connect 45 0 30 1;
#X connect 47 0 19 0;
#X connect 48 0 47 0;
#X connect 49 0 52 0;
#X connect 50 0 51 0;
#X connect 51 0 35 0;
#X connect 52 0 4 0;
#X connect 53 0 6 0;
#X connect 54 0 21 0;
#X connect 55 0 37 0;
#X connect 56 0 53 0;
#X connect 57 0 55 0;
#X connect 59 0 58 0;
#X connect 60 0 58 0;
#X connect 61 0 58 0;
#X connect 62 0 63 0;
#X connect 63 0 49 0;
#X connect 64 0 65 0;
#X connect 65 0 1 0;
#X connect 66 0 67 0;
#X connect 67 0 3 0;
#X connect 68 0 71 0;
#X connect 69 0 70 0;
#X connect 70 0 10 0;
#X connect 71 0 48 0;
#X connect 72 0 73 0;
#X connect 73 0 16 0;
#X connect 74 0 75 0;
#X connect 75 0 18 0;
#X connect 76 0 77 0;
#X connect 77 0 25 0;
#X connect 78 0 82 0;
#X connect 79 0 83 0;
#X connect 80 0 84 0;
#X connect 81 0 85 0;
#X connect 82 0 50 0;
#X connect 83 0 32 0;
#X connect 84 0 34 0;
#X connect 85 0 40 0;
