#N canvas 1179 215 1138 932 12;
#X floatatom 139 241 5 0 0 0 - - - 0;
#X obj 147 304 +~;
#X obj 129 354 osc~;
#X obj 196 452 *~ 0.5;
#X obj 134 496 dac~;
#X obj 272 242 osc~;
#X obj 272 286 *~;
#X floatatom 258 199 5 0 0 0 - - - 0;
#X floatatom 403 218 5 0 0 0 - - - 0;
#X obj 258 373 vline~;
#X obj 145 390 *~;
#X obj 391 266 bng 19 250 50 0 empty empty empty 0 -10 0 12 #fcfcfc #000000 #000000;
#X msg 258 341 1 2 \, 0 200 200;
#X obj 317 467 writesf~ 2;
#X msg 408 429 open pause.wav;
#X msg 437 295 start;
#X msg 388 309 stop;
#X obj 122 163 loadbang;
#X msg 128 191 158;
#X obj 245 146 loadbang;
#X msg 245 170 520;
#X obj 402 144 loadbang;
#X msg 401 175 525;
#X text 408 257 play;
#X connect 0 0 1 0;
#X connect 1 0 2 0;
#X connect 2 0 10 0;
#X connect 5 0 6 0;
#X connect 6 0 1 1;
#X connect 7 0 5 0;
#X connect 8 0 6 1;
#X connect 9 0 10 1;
#X connect 10 0 4 0;
#X connect 10 0 4 1;
#X connect 10 0 13 0;
#X connect 10 0 13 1;
#X connect 11 0 12 0;
#X connect 12 0 9 0;
#X connect 14 0 13 0;
#X connect 15 0 13 0;
#X connect 16 0 13 0;
#X connect 17 0 18 0;
#X connect 18 0 0 0;
#X connect 19 0 20 0;
#X connect 20 0 7 0;
#X connect 21 0 22 0;
#X connect 22 0 8 0;
